<svg xmlns="http://www.w3.org/2000/svg" xmlns:xlink="http://www.w3.org/1999/xlink" width="500" zoomAndPan="magnify" viewBox="0 0 375 374.999991" height="500" preserveAspectRatio="xMidYMid meet" version="1.0"><defs><clipPath id="2ac27ee911"><path d="M 118.054688 360.585938 L 257 360.585938 L 257 375 L 118.054688 375 Z M 118.054688 360.585938 " clip-rule="nonzero"/></clipPath><clipPath id="7741ff4445"><path d="M 244.667969 74.660156 L 272.875 74.660156 L 272.875 90.542969 L 244.667969 90.542969 Z M 244.667969 74.660156 " clip-rule="nonzero"/></clipPath></defs><g clip-path="url(#2ac27ee911)"><path fill="#f2901c" d="M 246.128906 375.015625 L 129.007812 375.015625 C 123.019531 375.015625 118.160156 370.15625 118.160156 364.160156 L 118.160156 364.097656 C 118.160156 362.316406 119.601562 360.875 121.378906 360.875 L 253.757812 360.875 C 255.535156 360.875 256.976562 362.316406 256.976562 364.097656 L 256.976562 364.160156 C 256.976562 370.15625 252.121094 375.015625 246.128906 375.015625 " fill-opacity="1" fill-rule="nonzero"/></g><path fill="#f2901c" d="M 256.730469 36.332031 L 247.226562 30.925781 L 247.226562 135.101562 L 256.730469 90.523438 L 256.730469 36.332031 " fill-opacity="1" fill-rule="nonzero"/><path fill="#be1e2d" d="M 127.824219 260.023438 L 127.824219 200.042969 L 123.738281 211.175781 C 123.074219 212.992188 122.730469 214.910156 122.730469 216.839844 L 122.730469 254.925781 C 122.730469 257.742188 125.011719 260.023438 127.824219 260.023438 " fill-opacity="1" fill-rule="nonzero"/><path fill="#ffa522" d="M 118.320312 36.332031 L 127.824219 30.925781 L 127.824219 135.101562 L 118.320312 90.523438 L 118.320312 36.332031 " fill-opacity="1" fill-rule="nonzero"/><path fill="#f2901c" d="M 187.410156 0 C 137.273438 0 124.875 11.445312 124.875 16.570312 L 124.875 29.015625 C 124.875 29.871094 125.621094 30.566406 126.539062 30.566406 L 248.285156 30.566406 C 249.203125 30.566406 249.945312 29.871094 249.945312 29.015625 L 249.945312 16.570312 C 249.945312 11.445312 237.546875 0 187.410156 0 " fill-opacity="1" fill-rule="nonzero"/><path fill="#ffa522" d="M 187.59375 2.640625 C 143.476562 2.640625 127.824219 12.304688 127.824219 18.398438 L 127.824219 92.144531 C 127.824219 95.054688 128.039062 98.519531 138.433594 98.519531 C 142.355469 98.519531 176.328125 98.519531 187.59375 98.519531 C 198.859375 98.519531 232.832031 98.519531 236.753906 98.519531 C 247.152344 98.519531 247.367188 95.054688 247.367188 92.144531 L 247.367188 18.398438 C 247.367188 12.304688 231.714844 2.640625 187.59375 2.640625 " fill-opacity="1" fill-rule="nonzero"/><path fill="#fbb040" d="M 187.527344 11.773438 C 185.265625 11.773438 141.226562 11.773438 139.273438 11.773438 C 135.167969 11.773438 132.90625 14.566406 132.90625 19.796875 L 132.90625 74.929688 L 187.527344 74.929688 L 187.527344 11.773438 " fill-opacity="1" fill-rule="nonzero"/><path fill="#ffc84d" d="M 135.144531 20.632812 C 135.144531 15.40625 137.40625 12.613281 141.515625 12.613281 C 143.25 12.613281 178.136719 12.613281 187.527344 12.613281 L 187.527344 11.773438 C 185.265625 11.773438 141.226562 11.773438 139.273438 11.773438 C 135.167969 11.773438 132.90625 14.566406 132.90625 19.796875 L 132.90625 74.929688 L 135.144531 74.929688 L 135.144531 20.632812 " fill-opacity="1" fill-rule="nonzero"/><path fill="#fbb040" d="M 187.527344 11.773438 C 189.789062 11.773438 233.824219 11.773438 235.777344 11.773438 C 239.886719 11.773438 242.148438 14.566406 242.148438 19.796875 L 242.148438 74.929688 L 187.527344 74.929688 L 187.527344 11.773438 " fill-opacity="1" fill-rule="nonzero"/><path fill="#dd7e17" d="M 239.90625 20.632812 C 239.90625 15.40625 237.644531 12.613281 233.539062 12.613281 C 231.804688 12.613281 196.914062 12.613281 187.527344 12.613281 L 187.527344 11.773438 C 189.789062 11.773438 233.824219 11.773438 235.777344 11.773438 C 239.886719 11.773438 242.148438 14.566406 242.148438 19.796875 L 242.148438 74.929688 L 239.90625 74.929688 L 239.90625 20.632812 " fill-opacity="1" fill-rule="nonzero"/><path fill="#d1d3d4" d="M 139.46875 10.511719 L 139.46875 11.765625 L 150.316406 11.765625 L 150.316406 10.511719 C 150.316406 10.15625 149.761719 9.867188 149.070312 9.867188 L 140.714844 9.867188 C 140.027344 9.867188 139.46875 10.15625 139.46875 10.511719 " fill-opacity="1" fill-rule="nonzero"/><path fill="#bcbec0" d="M 150.316406 11.765625 L 150.316406 10.511719 C 150.316406 10.15625 149.761719 9.867188 149.070312 9.867188 L 145.800781 9.867188 C 145.800781 10.515625 145.800781 11.765625 145.800781 11.765625 L 150.316406 11.765625 " fill-opacity="1" fill-rule="nonzero"/><path fill="#bcbec0" d="M 224.734375 10.511719 L 224.734375 11.765625 L 235.585938 11.765625 L 235.585938 10.511719 C 235.585938 10.15625 235.027344 9.867188 234.339844 9.867188 L 225.980469 9.867188 C 225.292969 9.867188 224.734375 10.15625 224.734375 10.511719 " fill-opacity="1" fill-rule="nonzero"/><path fill="#a7a9ac" d="M 235.585938 11.765625 L 235.585938 10.511719 C 235.585938 10.15625 235.027344 9.867188 234.339844 9.867188 L 231.070312 9.867188 C 231.070312 10.515625 231.070312 11.765625 231.070312 11.765625 L 235.585938 11.765625 " fill-opacity="1" fill-rule="nonzero"/><path fill="#f9bb41" d="M 225.804688 14.300781 C 224.816406 8.613281 213.917969 2.535156 187.527344 2.535156 C 161.136719 2.535156 150.238281 8.613281 149.246094 14.300781 L 140.28125 65.792969 L 234.769531 65.792969 L 225.804688 14.300781 " fill-opacity="1" fill-rule="nonzero"/><path fill="#ffc84d" d="M 150.789062 14.371094 C 151.644531 9.390625 159.898438 4.125 179.09375 2.773438 C 158.796875 3.929688 150.125 9.265625 149.246094 14.300781 L 140.28125 65.792969 L 141.964844 65.792969 L 150.789062 14.371094 " fill-opacity="1" fill-rule="nonzero"/><path fill="#dd7e17" d="M 224.265625 14.371094 C 223.410156 9.390625 215.152344 4.125 195.957031 2.773438 C 216.257812 3.929688 224.929688 9.265625 225.804688 14.300781 L 234.769531 65.792969 L 233.085938 65.792969 L 224.265625 14.371094 " fill-opacity="1" fill-rule="nonzero"/><path fill="#ffa522" d="M 253.9375 118.871094 L 247.484375 76.386719 C 244.882812 55.0625 216.460938 52.15625 187.527344 52.15625 C 158.589844 52.15625 130.171875 55.0625 127.570312 76.386719 L 121.117188 118.871094 C 120.578125 122.410156 120.308594 125.984375 120.308594 129.5625 L 120.308594 358.664062 C 120.308594 366.253906 126.460938 372.40625 134.046875 372.40625 L 241.007812 372.40625 C 248.59375 372.40625 254.742188 366.253906 254.742188 358.664062 L 254.742188 129.5625 C 254.742188 125.984375 254.472656 122.410156 253.9375 118.871094 " fill-opacity="1" fill-rule="nonzero"/><path fill="#ffc84d" d="M 149.074219 55.871094 C 137.289062 59.179688 128.925781 65.28125 127.570312 76.386719 L 123.105469 105.773438 L 130.074219 75.804688 C 131.332031 65.410156 138.621094 59.359375 149.074219 55.871094 " fill-opacity="1" fill-rule="nonzero"/><path fill="#231f20" d="M 187.59375 52.863281 C 154.664062 52.863281 136.191406 56.164062 136.191406 67.238281 C 157.0625 67.238281 239 67.238281 239 67.238281 C 239 56.164062 220.523438 52.863281 187.59375 52.863281 " fill-opacity="1" fill-rule="nonzero"/><path fill="#fbb040" d="M 187.59375 76.386719 L 134.859375 76.386719 L 134.859375 364.796875 C 134.859375 366.542969 135.199219 367.628906 137.316406 367.628906 C 144.101562 367.628906 187.59375 367.628906 187.59375 367.628906 C 187.59375 367.628906 231.089844 367.628906 237.875 367.628906 C 239.992188 367.628906 240.332031 366.542969 240.332031 364.796875 L 240.332031 76.386719 L 187.59375 76.386719 " fill-opacity="1" fill-rule="nonzero"/><path fill="#ffc84d" d="M 137.023438 364.796875 L 137.023438 76.386719 L 134.859375 76.386719 L 134.859375 364.796875 C 134.859375 366.542969 135.199219 367.628906 137.316406 367.628906 C 137.65625 367.628906 138.117188 367.628906 138.636719 367.628906 C 137.484375 366.953125 137.023438 365.871094 137.023438 364.796875 " fill-opacity="1" fill-rule="nonzero"/><path fill="#ea9126" d="M 238.167969 364.796875 L 238.167969 76.386719 L 240.332031 76.386719 L 240.332031 364.796875 C 240.332031 366.542969 239.992188 367.628906 237.875 367.628906 C 237.53125 367.628906 237.074219 367.628906 236.554688 367.628906 C 237.707031 366.953125 238.167969 365.871094 238.167969 364.796875 " fill-opacity="1" fill-rule="nonzero"/><path fill="#35454c" d="M 187.597656 57.0625 C 158.789062 57.0625 134.792969 58.96875 134.945312 71.304688 C 135.078125 81.882812 135.242188 95.332031 135.242188 95.332031 C 135.242188 95.332031 144.378906 92.253906 187.59375 92.253906 C 230.8125 92.253906 239.945312 95.332031 239.945312 95.332031 C 239.945312 95.332031 240.113281 81.882812 240.246094 71.304688 C 240.398438 58.96875 216.402344 57.0625 187.597656 57.0625 " fill-opacity="1" fill-rule="nonzero"/><path fill="#43525b" d="M 135.144531 87.402344 C 135.203125 92.046875 135.242188 95.332031 135.242188 95.332031 C 135.242188 95.332031 144.378906 92.253906 187.59375 92.253906 C 230.8125 92.253906 239.945312 95.332031 239.945312 95.332031 C 239.945312 95.332031 240.113281 81.882812 240.246094 71.304688 C 240.28125 68.4375 239.113281 66.171875 237.003906 64.375 C 185.144531 60.128906 142.03125 81.25 135.144531 87.402344 " fill-opacity="1" fill-rule="nonzero"/><path fill="#231f20" d="M 187.59375 91.6875 C 224.480469 91.6875 236.519531 93.898438 239.386719 94.59375 L 239.679688 71.300781 C 239.707031 69.105469 238.941406 67.253906 237.339844 65.632812 C 230.398438 58.59375 209.328125 57.628906 187.59375 57.628906 C 165.863281 57.628906 144.796875 58.59375 137.851562 65.632812 C 136.25 67.253906 135.484375 69.105469 135.511719 71.300781 L 135.800781 94.59375 C 138.671875 93.898438 150.710938 91.6875 187.59375 91.6875 Z M 135.242188 95.898438 C 135.128906 95.898438 135.015625 95.863281 134.917969 95.796875 C 134.769531 95.691406 134.679688 95.519531 134.679688 95.339844 L 134.378906 71.3125 C 134.347656 68.839844 135.242188 66.660156 137.042969 64.835938 C 144.28125 57.503906 165.617188 56.492188 187.59375 56.492188 C 209.574219 56.492188 230.910156 57.503906 238.148438 64.835938 C 239.945312 66.660156 240.84375 68.839844 240.8125 71.3125 L 240.511719 95.339844 C 240.511719 95.519531 240.421875 95.6875 240.273438 95.792969 C 240.125 95.902344 239.9375 95.921875 239.765625 95.871094 C 239.675781 95.839844 230.078125 92.820312 187.59375 92.820312 C 144.964844 92.820312 135.515625 95.839844 135.425781 95.871094 C 135.367188 95.890625 135.304688 95.898438 135.242188 95.898438 " fill-opacity="1" fill-rule="nonzero"/><path fill="#43525b" d="M 127.382812 136.839844 C 128.925781 136.839844 130.175781 135.589844 130.175781 134.042969 L 130.175781 117.128906 C 130.175781 104.628906 130.175781 77.027344 130.175781 74.964844 L 127.824219 87.160156 L 122.609375 122.769531 C 122.515625 123.558594 122.464844 124.351562 122.464844 125.144531 L 122.464844 135.847656 C 122.464844 136.398438 122.910156 136.839844 123.457031 136.839844 L 127.382812 136.839844 " fill-opacity="1" fill-rule="nonzero"/><path fill="#231f20" d="M 130.175781 74.964844 L 130.175781 87.160156 L 127.824219 87.160156 L 126.921875 85.441406 L 102.761719 90.523438 L 102.246094 88.882812 C 102.019531 88.160156 102.371094 87.390625 103.070312 87.101562 C 105.425781 86.121094 110.898438 83.96875 116.769531 82.503906 C 118.148438 82.066406 119.484375 81.429688 120.355469 84.148438 C 121.542969 87.824219 130.175781 74.964844 130.175781 74.964844 " fill-opacity="1" fill-rule="nonzero"/><path fill="#43525b" d="M 216.195312 143.132812 L 159.238281 143.132812 C 157.710938 143.132812 156.476562 141.894531 156.476562 140.367188 L 156.476562 117.25 C 156.476562 115.722656 157.710938 114.484375 159.238281 114.484375 L 216.195312 114.484375 C 217.722656 114.484375 218.960938 115.722656 218.960938 117.25 L 218.960938 140.367188 C 218.960938 141.894531 217.722656 143.132812 216.195312 143.132812 " fill-opacity="1" fill-rule="nonzero"/><path fill="#4f636d" d="M 216.195312 143.132812 L 159.238281 143.132812 C 157.710938 143.132812 156.476562 141.894531 156.476562 140.367188 C 156.476562 140.367188 164.335938 133.722656 177.082031 128.808594 C 194.757812 121.992188 218.960938 116.363281 218.960938 117.25 L 218.960938 140.367188 C 218.960938 141.894531 217.722656 143.132812 216.195312 143.132812 " fill-opacity="1" fill-rule="nonzero"/><path fill="#231f20" d="M 159.238281 115.054688 C 158.027344 115.054688 157.042969 116.042969 157.042969 117.25 L 157.042969 140.367188 C 157.042969 141.578125 158.027344 142.5625 159.238281 142.5625 L 216.195312 142.5625 C 217.40625 142.5625 218.390625 141.578125 218.390625 140.367188 L 218.390625 117.25 C 218.390625 116.042969 217.40625 115.054688 216.195312 115.054688 Z M 216.195312 143.703125 L 159.238281 143.703125 C 157.402344 143.703125 155.90625 142.207031 155.90625 140.367188 L 155.90625 117.25 C 155.90625 115.414062 157.402344 113.917969 159.238281 113.917969 L 216.195312 113.917969 C 218.03125 113.917969 219.523438 115.414062 219.523438 117.25 L 219.523438 140.367188 C 219.523438 142.207031 218.03125 143.703125 216.195312 143.703125 " fill-opacity="1" fill-rule="nonzero"/><path fill="#43525b" d="M 216.195312 223.140625 L 159.238281 223.140625 C 157.710938 223.140625 156.476562 221.90625 156.476562 220.378906 L 156.476562 197.261719 C 156.476562 195.734375 157.710938 194.496094 159.238281 194.496094 L 216.195312 194.496094 C 217.722656 194.496094 218.960938 195.734375 218.960938 197.261719 L 218.960938 220.378906 C 218.960938 221.90625 217.722656 223.140625 216.195312 223.140625 " fill-opacity="1" fill-rule="nonzero"/><path fill="#4f636d" d="M 216.195312 223.140625 L 159.238281 223.140625 C 157.710938 223.140625 156.476562 221.90625 156.476562 220.378906 C 156.476562 220.378906 164.335938 213.734375 177.082031 208.820312 C 194.757812 202.003906 218.960938 196.375 218.960938 197.261719 L 218.960938 220.378906 C 218.960938 221.90625 217.722656 223.140625 216.195312 223.140625 " fill-opacity="1" fill-rule="nonzero"/><path fill="#231f20" d="M 159.238281 195.0625 C 158.027344 195.0625 157.042969 196.050781 157.042969 197.261719 L 157.042969 220.378906 C 157.042969 221.589844 158.027344 222.574219 159.238281 222.574219 L 216.195312 222.574219 C 217.40625 222.574219 218.390625 221.589844 218.390625 220.378906 L 218.390625 197.261719 C 218.390625 196.050781 217.40625 195.0625 216.195312 195.0625 Z M 216.195312 223.710938 L 159.238281 223.710938 C 157.402344 223.710938 155.90625 222.214844 155.90625 220.378906 L 155.90625 197.261719 C 155.90625 195.421875 157.402344 193.925781 159.238281 193.925781 L 216.195312 193.925781 C 218.03125 193.925781 219.523438 195.421875 219.523438 197.261719 L 219.523438 220.378906 C 219.523438 222.214844 218.03125 223.710938 216.195312 223.710938 " fill-opacity="1" fill-rule="nonzero"/><path fill="#43525b" d="M 216.195312 305.824219 L 159.238281 305.824219 C 157.710938 305.824219 156.476562 304.585938 156.476562 303.0625 L 156.476562 279.945312 C 156.476562 278.417969 157.710938 277.179688 159.238281 277.179688 L 216.195312 277.179688 C 217.722656 277.179688 218.960938 278.417969 218.960938 279.945312 L 218.960938 303.0625 C 218.960938 304.585938 217.722656 305.824219 216.195312 305.824219 " fill-opacity="1" fill-rule="nonzero"/><path fill="#4f636d" d="M 216.195312 305.824219 L 159.238281 305.824219 C 157.710938 305.824219 156.476562 304.585938 156.476562 303.0625 C 156.476562 303.0625 164.335938 296.414062 177.082031 291.503906 C 194.757812 284.6875 218.960938 279.058594 218.960938 279.945312 L 218.960938 303.0625 C 218.960938 304.585938 217.722656 305.824219 216.195312 305.824219 " fill-opacity="1" fill-rule="nonzero"/><path fill="#231f20" d="M 159.238281 277.746094 C 158.027344 277.746094 157.042969 278.734375 157.042969 279.945312 L 157.042969 303.0625 C 157.042969 304.273438 158.027344 305.257812 159.238281 305.257812 L 216.195312 305.257812 C 217.40625 305.257812 218.390625 304.273438 218.390625 303.0625 L 218.390625 279.945312 C 218.390625 278.734375 217.40625 277.746094 216.195312 277.746094 Z M 216.195312 306.394531 L 159.238281 306.394531 C 157.402344 306.394531 155.90625 304.898438 155.90625 303.0625 L 155.90625 279.945312 C 155.90625 278.105469 157.402344 276.613281 159.238281 276.613281 L 216.195312 276.613281 C 218.03125 276.613281 219.523438 278.105469 219.523438 279.945312 L 219.523438 303.0625 C 219.523438 304.898438 218.03125 306.394531 216.195312 306.394531 " fill-opacity="1" fill-rule="nonzero"/><path fill="#43525b" d="M 129.214844 193.75 L 124.273438 193.75 C 123.507812 193.75 122.890625 193.128906 122.890625 192.363281 L 122.890625 144.515625 C 122.890625 143.753906 123.507812 143.132812 124.273438 143.132812 L 129.214844 143.132812 C 131.019531 143.132812 132.480469 144.59375 132.480469 146.398438 L 132.480469 190.484375 C 132.480469 192.289062 131.019531 193.75 129.214844 193.75 " fill-opacity="1" fill-rule="nonzero"/><path fill="#43525b" d="M 129.214844 248.257812 L 124.273438 248.257812 C 123.507812 248.257812 122.890625 247.636719 122.890625 246.875 L 122.890625 199.027344 C 122.890625 198.261719 123.507812 197.640625 124.273438 197.640625 L 129.214844 197.640625 C 131.019531 197.640625 132.480469 199.105469 132.480469 200.90625 L 132.480469 244.992188 C 132.480469 246.796875 131.019531 248.257812 129.214844 248.257812 " fill-opacity="1" fill-rule="nonzero"/><path fill="#43525b" d="M 129.214844 302.769531 L 124.273438 302.769531 C 123.507812 302.769531 122.890625 302.148438 122.890625 301.382812 L 122.890625 253.539062 C 122.890625 252.773438 123.507812 252.152344 124.273438 252.152344 L 129.214844 252.152344 C 131.019531 252.152344 132.480469 253.613281 132.480469 255.417969 L 132.480469 299.503906 C 132.480469 301.308594 131.019531 302.769531 129.214844 302.769531 " fill-opacity="1" fill-rule="nonzero"/><path fill="#43525b" d="M 129.214844 357.277344 L 124.273438 357.277344 C 123.507812 357.277344 122.890625 356.660156 122.890625 355.890625 L 122.890625 308.046875 C 122.890625 307.28125 123.507812 306.660156 124.273438 306.660156 L 129.214844 306.660156 C 131.019531 306.660156 132.480469 308.121094 132.480469 309.925781 L 132.480469 354.011719 C 132.480469 355.816406 131.019531 357.277344 129.214844 357.277344 " fill-opacity="1" fill-rule="nonzero"/><path fill="#dd7e17" d="M 225.980469 55.871094 C 237.765625 59.179688 246.128906 65.28125 247.484375 76.386719 L 251.945312 105.773438 L 244.980469 75.804688 C 243.722656 65.410156 236.433594 59.359375 225.980469 55.871094 " fill-opacity="1" fill-rule="nonzero"/><path fill="#35454c" d="M 247.667969 136.839844 C 246.125 136.839844 244.875 135.589844 244.875 134.042969 L 244.875 117.128906 C 244.875 104.628906 244.875 77.027344 244.875 74.964844 L 247.226562 87.160156 L 252.441406 122.769531 C 252.539062 123.558594 252.585938 124.351562 252.585938 125.144531 L 252.585938 135.847656 C 252.585938 136.398438 252.144531 136.839844 251.59375 136.839844 L 247.667969 136.839844 " fill-opacity="1" fill-rule="nonzero"/><g clip-path="url(#7741ff4445)"><path fill="#231f20" d="M 244.875 74.964844 L 244.875 87.160156 L 247.226562 87.160156 L 248.132812 85.441406 L 272.292969 90.523438 L 272.804688 88.882812 C 273.03125 88.160156 272.683594 87.390625 271.984375 87.101562 C 269.628906 86.121094 264.15625 83.96875 258.28125 82.503906 C 256.90625 82.066406 255.570312 81.429688 254.695312 84.148438 C 253.511719 87.824219 244.875 74.964844 244.875 74.964844 " fill-opacity="1" fill-rule="nonzero"/></g><path fill="#35454c" d="M 245.835938 193.75 L 250.777344 193.75 C 251.542969 193.75 252.164062 193.128906 252.164062 192.363281 L 252.164062 144.515625 C 252.164062 143.753906 251.542969 143.132812 250.777344 143.132812 L 245.835938 143.132812 C 244.035156 143.132812 242.574219 144.59375 242.574219 146.398438 L 242.574219 190.484375 C 242.574219 192.289062 244.035156 193.75 245.835938 193.75 " fill-opacity="1" fill-rule="nonzero"/><path fill="#35454c" d="M 245.835938 248.257812 L 250.777344 248.257812 C 251.542969 248.257812 252.164062 247.636719 252.164062 246.875 L 252.164062 199.027344 C 252.164062 198.261719 251.542969 197.640625 250.777344 197.640625 L 245.835938 197.640625 C 244.035156 197.640625 242.574219 199.105469 242.574219 200.90625 L 242.574219 244.992188 C 242.574219 246.796875 244.035156 248.257812 245.835938 248.257812 " fill-opacity="1" fill-rule="nonzero"/><path fill="#35454c" d="M 245.835938 302.769531 L 250.777344 302.769531 C 251.542969 302.769531 252.164062 302.148438 252.164062 301.382812 L 252.164062 253.539062 C 252.164062 252.773438 251.542969 252.152344 250.777344 252.152344 L 245.835938 252.152344 C 244.035156 252.152344 242.574219 253.613281 242.574219 255.417969 L 242.574219 299.503906 C 242.574219 301.308594 244.035156 302.769531 245.835938 302.769531 " fill-opacity="1" fill-rule="nonzero"/><path fill="#35454c" d="M 245.835938 357.277344 L 250.777344 357.277344 C 251.542969 357.277344 252.164062 356.660156 252.164062 355.890625 L 252.164062 308.046875 C 252.164062 307.28125 251.542969 306.660156 250.777344 306.660156 L 245.835938 306.660156 C 244.035156 306.660156 242.574219 308.121094 242.574219 309.925781 L 242.574219 354.011719 C 242.574219 355.816406 244.035156 357.277344 245.835938 357.277344 " fill-opacity="1" fill-rule="nonzero"/></svg>